# xmcd
#
# Track frame offsets:
# 217
# 12485
# 29370
# 41202
# 49897
# 69200
# 86307
# 104522
# 122667
# 138800
# 158697
# 175377
# 188225
# 199927
# 219642
#
# Disc length: 3287 seconds
#
#
# Revision: 4
# Processed by: cddbd v1.5.1PL0 Copyright (c) Steve Scherf et al.
# Submitted via: FreeRIP 2.942 
#
DISCID=d10cd50f
DTITLE=Various Artist - Slidin'  With The Blues
DYEAR=1995
DGENRE=Blues
TTITLE0=Buddy Guy - You Sure Can't Do
TTITLE1=Billy Boy Arnold and Tony McPhee - Catfish
TTITLE2=Johnny Guitar Watson - One Room Country Shack
TTITLE3=Earl Hooker - The Foxtrot
TTITLE4=Byther Smith - I Don't Like To Travel
TTITLE5=Albert Collins - Deep Freeze
TTITLE6=Roy Gaines and The Crusaders - Hell Of A Night
TTITLE7=Tommy Tucker - Hi Heel Sneakers
TTITLE8=Greg 'Fingers' Taylor - Dixie Diner
TTITLE9=The Chigago Blues Summit and Sunnyland Slim - I Can't Stop
TTITLE10=Billy Boy Arnold - Back Door Friend
TTITLE11=Paul Orta and The Kingpins - Up The Line
TTITLE12=Little Milton - Long Distance Operator
TTITLE13=Fenton Robinson - Somebody Loan Me A Dime
TTITLE14=Joe Carter - Stormy Monday
EXTD=
EXTT0=
EXTT1=
EXTT2=
EXTT3=
EXTT4=
EXTT5=
EXTT6=
EXTT7=
EXTT8=
EXTT9=
EXTT10=
EXTT11=
EXTT12=
EXTT13=
EXTT14=
PLAYORDER=
